<svg width="32" height="32" viewBox="0 0 32 32" fill="none" xmlns="http://www.w3.org/2000/svg">
<g clip-path="url(#clip0_526_115)">
<path d="M26 5H6C5.44772 5 5 5.44772 5 6V26C5 26.5523 5.44772 27 6 27H26C26.5523 27 27 26.5523 27 26V6C27 5.44772 26.5523 5 26 5Z" stroke="#94A3B8" stroke-width="2" stroke-linecap="round" stroke-linejoin="round"/>
<path d="M12 14C13.1046 14 14 13.1046 14 12C14 10.8954 13.1046 10 12 10C10.8954 10 10 10.8954 10 12C10 13.1046 10.8954 14 12 14Z" stroke="#94A3B8" stroke-width="2" stroke-linecap="round" stroke-linejoin="round"/>
<path d="M7.08624 27.0001L20.7925 13.2926C20.8854 13.1996 20.9957 13.1258 21.1171 13.0755C21.2385 13.0252 21.3686 12.9993 21.5 12.9993C21.6314 12.9993 21.7615 13.0252 21.8829 13.0755C22.0043 13.1258 22.1146 13.1996 22.2075 13.2926L27 18.0863" stroke="#94A3B8" stroke-width="2" stroke-linecap="round" stroke-linejoin="round"/>
</g>
<defs>
<clipPath id="clip0_526_115">
<rect width="32" height="32" fill="white"/>
</clipPath>
</defs>
</svg>
